:SAMPLES-PER-SECOND 30
:FULLY-SPECIFIED
:DEGREES
563
root  -4.3115 41.0018 0.686962 166.239 -84.0999 -164.62
RightUpLeg  2.94017 -0.662256 -0.789743
RightLeg  -5.64128 -15.0172 2.11775
RightFoot  2.78543 -0.409724 3.45858
RightToes  -3.1126e-008 1.75238e-005 3.56266e-009
Spine  7.20288 -0.73589 -6.14079
Spine1  -12.2755 -1.45674 7.83961
HEad  16.3767 -9.42725 -2.21011
LeftShoulder1  -0.0321313 3.6618 -13.4845
LeftArm  -13.538 -28.1893 -54.1186
LeftForeArm  81.4997 -79.454 -58.9448
LeftHand  -0.614317 -5.25497 7.0095
RightShoulder  0.362555 -1.85909 15.5437
RightArm  -11.0107 -33.9339 47.6993
RightForeArm  60.1216 76.8484 45.249
RightHand  -0.508189 8.6049 -4.58609
LeftUpLeg  4.18738 1.71565 3.13287
LeftLeg  -3.98228 22.6832 -1.39349
LeftFoot  -0.426462 0.327587 -3.40138
LeftToes  4.78049e-008 1.46235e-008 1.34219e-009
564
root  -4.36367 40.998 0.657043 165.067 -84.1902 -163.598
RightUpLeg  3.31296 -0.688855 -0.706558
RightLeg  -5.84939 -15.0962 2.25234
RightFoot  2.74017 -0.399324 3.38297
RightToes  -3.1126e-008 1.75238e-005 3.56266e-009
Spine  6.89713 -0.537798 -5.62024
Spine1  -11.7598 -1.23011 7.20395
HEad  15.5756 -9.53551 -1.97882
LeftShoulder1  -0.159653 4.28747 -13.3111
LeftArm  -17.2331 -26.1372 -52.8828
LeftForeArm  84.6286 -79.7862 -62.6011
LeftHand  -0.589208 -4.70493 7.07432
RightShoulder  0.328837 -2.00846 15.4809
RightArm  -11.2945 -34.7551 47.7385
RightForeArm  59.2973 76.6689 44.4558
RightHand  -0.559101 8.62754 -5.00301
LeftUpLeg  4.36036 1.8033 3.25582
LeftLeg  -3.82659 22.4967 -1.28624
LeftFoot  -0.543756 0.335416 -3.51614
LeftToes  4.78049e-008 1.46235e-008 1.34219e-009
565
root  -4.40506 40.9946 0.614563 163.015 -84.5995 -161.694
RightUpLeg  3.69774 -0.725799 -0.602889
RightLeg  -6.04371 -15.4912 2.41917
RightFoot  2.66534 -0.376704 3.21338
RightToes  -3.1126e-008 1.75238e-005 3.56266e-009
Spine  6.73862 -0.379792 -5.35284
Spine1  -11.3061 -1.07282 6.90703
HEad  13.8177 -9.61664 -1.39904
LeftShoulder1  -0.131702 4.14426 -13.5263
LeftArm  -20.3057 -24.8485 -51.0583
LeftForeArm  87.6035 -80.0345 -65.5655
LeftHand  -0.579927 -5.45212 6.51611
RightShoulder  0.277327 -2.21476 15.026
RightArm  -11.4548 -35.6686 48.3361
RightForeArm  58.7161 76.5739 44.1157
RightHand  -0.5541 8.26757 -5.07448
LeftUpLeg  4.44743 1.90825 3.43385
LeftLeg  -3.59536 21.9309 -1.16112
LeftFoot  -0.684471 0.347648 -3.69358
LeftToes  4.78049e-008 1.46235e-008 1.34219e-009
566
root  -4.4372 40.9943 0.566444 161.043 -85.1611 -159.775
RightUpLeg  3.90702 -0.664707 -0.505406
RightLeg  -6.11021 -16.1337 2.4127
RightFoot  2.60119 -0.38364 3.28118
RightToes  -3.1126e-008 1.75238e-005 3.56266e-009
Spine  6.66741 -0.343618 -5.36099
Spine1  -10.9746 -1.04466 6.79458
HEad  11.7872 -9.05297 -0.835289
LeftShoulder1  -0.14707 4.21811 -13.5577
LeftArm  -21.6327 -24.1523 -49.7587
LeftForeArm  90.4483 -80.253 -69.2043
LeftHand  -0.570515 -5.15397 6.58497
RightShoulder  0.263922 -2.2789 15.0769
RightArm  -11.1677 -36.187 48.6575
RightForeArm  57.7039 76.3533 43.2204
RightHand  -0.490257 8.42505 -4.48912
LeftUpLeg  4.47861 1.94683 3.52655
LeftLeg  -3.57363 21.2499 -1.13149
LeftFoot  -0.63145 0.349517 -3.70327
LeftToes  4.78049e-008 1.46235e-008 1.34219e-009
567
root  -4.44986 40.9958 0.522525 157.878 -85.8948 -156.485
RightUpLeg  3.86231 -0.657591 -0.44546
RightLeg  -6.09102 -16.9133 2.49082
RightFoot  2.48006 -0.376505 3.24468
RightToes  -3.1126e-008 1.75238e-005 3.56266e-009
Spine  6.84278 -0.408349 -5.59273
Spine1  -11.1906 -1.12298 7.0273
HEad  9.03715 -8.61953 -0.804409
LeftShoulder1  -0.128115 4.12909 -13.4531
LeftArm  -22.6054 -23.9389 -48.6067
LeftForeArm  92.4159 -80.3745 -71.4858
LeftHand  -0.559799 -5.19199 6.43414
RightShoulder  0.286162 -2.16847 14.9048
RightArm  -10.9238 -37.0079 49.2036
RightForeArm  57.8417 76.339 43.0906
RightHand  -0.472421 8.26517 -4.3834
LeftUpLeg  4.22467 1.86479 3.54349
LeftLeg  -3.53307 20.5829 -1.00292
LeftFoot  -0.548875 0.345474 -3.61396
LeftToes  4.78049e-008 1.46235e-008 1.34219e-009
